Coordinates
version=1
nRows=10
nColumns=38
inDegrees=no

Units are S.I. units (second, meters, Newtons, ...)
If the header above contains a line with 'inDegrees', this indicates whether rotational values are in degrees (yes) or radians (no).

endheader
time	pelvis_tilt	pelvis_list	pelvis_rotation	pelvis_tx	pelvis_ty	pelvis_tz	hip_flexion_r	hip_adduction_r	hip_rotation_r	knee_angle_r	ankle_angle_r	subtalar_angle_r	mtp_angle_r	hip_flexion_l	hip_adduction_l	hip_rotation_l	knee_angle_l	ankle_angle_l	subtalar_angle_l	mtp_angle_l	lumbar_extension	lumbar_bending	lumbar_rotation	arm_flex_r	arm_add_r	arm_rot_r	elbow_flex_r	pro_sup_r	wrist_flex_r	wrist_dev_r	arm_flex_l	arm_add_l	arm_rot_l	elbow_flex_l	pro_sup_l	wrist_flex_l	wrist_dev_l
0.341667	-0.134628	0.0695876	-0.0768054	0.975933	0.998994	-0.3017	0.68468	0.0704277	0.226612	-0.391619	0.299052	-0.0319619	-0.00910766	-0.194341	0.137235	-0.106708	-1.10623	-0.279644	-0.0238156	-0.0487118	-0.0191574	0.00266233	-0.306731	-0.928026	-0.367636	-0.189994	1.55415	1.98227	0.018341	-0.00793094	-0.516216	-0.264794	0.0584146	2.25146	2.12865	0.0669041	-0.0375241
0.35	-0.127078	0.0629944	-0.085161	0.975113	0.994286	-0.300964	0.662561	0.081185	0.211791	-0.397563	0.254114	-0.0319619	-0.00910766	-0.168603	0.117177	-0.134081	-1.2202	-0.264568	-0.0238156	-0.0487118	-0.0329123	0.00850286	-0.286999	-0.913634	-0.364438	-0.188568	1.55117	1.97589	0.018341	-0.00793094	-0.520462	-0.257726	0.057964	2.23389	2.13108	0.0669041	-0.0375241
0.358333	-0.121262	0.0565701	-0.0937378	0.973717	0.988818	-0.300279	0.647049	0.0941273	0.201029	-0.417569	0.214963	-0.0319619	-0.00910766	-0.137815	0.0979586	-0.157614	-1.33074	-0.248167	-0.0238156	-0.0487118	-0.0458192	0.0140593	-0.264698	-0.896719	-0.362124	-0.185557	1.54881	1.97158	0.018341	-0.00793094	-0.522962	-0.251372	0.0578738	2.21241	2.13407	0.0669041	-0.0375241
0.366667	-0.117175	0.0503251	-0.102547	0.97177	0.982645	-0.299634	0.637973	0.109191	0.194273	-0.451292	0.181953	-0.0319619	-0.00910766	-0.101946	0.0796022	-0.177336	-1.43779	-0.230489	-0.0238156	-0.0487118	-0.057883	0.0193152	-0.239838	-0.877239	-0.360693	-0.180959	1.54705	1.9693	0.018341	-0.00793094	-0.523724	-0.245722	0.0581375	2.18699	2.13755	0.0669041	-0.0375241
0.375	-0.11477	0.0443176	-0.111605	0.969308	0.975898	-0.299031	0.634805	0.126144	0.191363	-0.497731	0.156108	-0.0319619	-0.00910766	-0.0609483	0.0622039	-0.193306	-1.54109	-0.211688	-0.0238156	-0.0487118	-0.0691328	0.0241952	-0.212494	-0.855079	-0.360141	-0.17476	1.54591	1.96894	0.018341	-0.00793094	-0.522801	-0.240749	0.0587201	2.15759	2.14131	0.0669041	-0.0375241
0.383333	-0.11392	0.0386847	-0.120899	0.966386	0.968818	-0.298481	0.636491	0.144481	0.191983	-0.554978	0.139072	-0.0319619	-0.00910766	-0.0148123	0.0459684	-0.205605	-1.64011	-0.192037	-0.0238156	-0.0487118	-0.0796331	0.028529	-0.182892	-0.830032	-0.36047	-0.166916	1.54539	1.97027	0.018341	-0.00793094	-0.520352	-0.236399	0.059536	2.12419	2.14494	0.0669041	-0.0375241
0.391667	-0.114373	0.0336427	-0.130331	0.963074	0.961741	-0.298001	0.641407	0.163382	0.195662	-0.620115	0.132634	-0.0319619	-0.00910766	0.0363864	0.0311952	-0.214315	-1.73399	-0.171888	-0.0238156	-0.0487118	-0.0894485	0.032051	-0.151508	-0.80182	-0.36168	-0.157356	1.54553	1.97298	0.018341	-0.00793094	-0.516708	-0.232602	0.0604386	2.08688	2.14784	0.0669041	-0.0375241
0.4	-0.115837	0.029462	-0.139661	0.959441	0.954991	-0.297603	0.647415	0.181732	0.201791	-0.689343	0.138059	-0.0319619	-0.00910766	0.0923974	0.01824	-0.219487	-1.82154	-0.151581	-0.0238156	-0.0487118	-0.0986578	0.0344211	-0.119133	-0.770156	-0.363748	-0.145991	1.54644	1.97662	0.018341	-0.00793094	-0.512406	-0.2293	0.0612249	2.04596	2.14929	0.0669041	-0.0375241
0.408333	-0.117959	0.0264345	-0.148479	0.955555	0.948786	-0.297304	0.652091	0.198228	0.209665	-0.758328	0.155523	-0.0319619	-0.00910766	0.15275	0.00745789	-0.221136	-1.90137	-0.131363	-0.0238156	-0.0487118	-0.107315	0.0352742	-0.0868777	-0.734824	-0.366584	-0.132742	1.54826	1.98064	0.018341	-0.00793094	-0.508198	-0.226481	0.0616522	2.00209	2.14858	0.0669041	-0.0375241
0.416667	-0.120383	0.0248428	-0.156225	0.951498	0.94326	-0.297118	0.653061	0.211552	0.21856	-0.822707	0.183891	-0.0319619	-0.00910766	0.21675	-0.000850933	-0.219265	-1.97195	-0.111351	-0.0238156	-0.0487118	-0.115409	0.0342693	-0.0560775	-0.695778	-0.370002	-0.117581	1.55123	1.9844	0.018341	-0.00793094	-0.505	-0.224207	0.0614601	1.95633	2.14516	0.0669041	-0.0375241
